<svg width="628" height="100%" viewBox="0 0 728 789" fill="none" xmlns="http://www.w3.org/2000/svg">
<g clip-path="url(#clip0)">
<rect x="728" y="799" width="728" height="799" transform="rotate(-180 728 799)" fill="url(#paint0_linear)"/>
<g style="mix-blend-mode:overlay" opacity="0.2">
<rect x="493" y="-166" width="398" height="398" rx="40" fill="url(#paint1_linear)"/>
</g>
<g style="mix-blend-mode:overlay" opacity="0.2">
<rect x="355" y="952" width="398" height="398" rx="40" transform="rotate(-180 355 952)" fill="url(#paint2_linear)"/>
</g>
<g style="mix-blend-mode:overlay" opacity="0.2">
<rect x="96" y="820" width="398" height="398" rx="40" transform="rotate(-180 96 820)" fill="url(#paint3_linear)"/>
</g>
<g style="mix-blend-mode:soft-light" opacity="0.5">
<circle cx="60" cy="72" r="4" fill="#FFFDFF"/>
<circle cx="60" cy="88" r="4" fill="#FFFDFF"/>
<circle cx="60" cy="104" r="4" fill="#FFFDFF"/>
<circle cx="60" cy="120" r="4" fill="#FFFDFF"/>
<circle cx="60" cy="136" r="4" fill="#FFFDFF"/>
<circle cx="92" cy="72" r="4" fill="#FFFDFF"/>
<circle cx="92" cy="88" r="4" fill="#FFFDFF"/>
<circle cx="92" cy="104" r="4" fill="#FFFDFF"/>
<circle cx="92" cy="120" r="4" fill="#FFFDFF"/>
<circle cx="92" cy="136" r="4" fill="#FFFDFF"/>
<circle cx="124" cy="72" r="4" fill="#FFFDFF"/>
<circle cx="124" cy="88" r="4" fill="#FFFDFF"/>
<circle cx="124" cy="104" r="4" fill="#FFFDFF"/>
<circle cx="124" cy="120" r="4" fill="#FFFDFF"/>
<circle cx="124" cy="136" r="4" fill="#FFFDFF"/>
<circle cx="76" cy="72" r="4" fill="#FFFDFF"/>
<circle cx="76" cy="88" r="4" fill="#FFFDFF"/>
<circle cx="76" cy="104" r="4" fill="#FFFDFF"/>
<circle cx="76" cy="120" r="4" fill="#FFFDFF"/>
<circle cx="76" cy="136" r="4" fill="#FFFDFF"/>
<circle cx="108" cy="72" r="4" fill="#FFFDFF"/>
<circle cx="108" cy="88" r="4" fill="#FFFDFF"/>
<circle cx="108" cy="104" r="4" fill="#FFFDFF"/>
<circle cx="108" cy="120" r="4" fill="#FFFDFF"/>
<circle cx="108" cy="136" r="4" fill="#FFFDFF"/>
<circle cx="140" cy="72" r="4" fill="#FFFDFF"/>
<circle cx="140" cy="88" r="4" fill="#FFFDFF"/>
<circle cx="140" cy="104" r="4" fill="#FFFDFF"/>
<circle cx="140" cy="120" r="4" fill="#FFFDFF"/>
<circle cx="140" cy="136" r="4" fill="#FFFDFF"/>
</g>
<g style="mix-blend-mode:soft-light" opacity="0.5">
<circle cx="598.182" cy="667.182" r="8.18182" fill="#FFFDFF"/>
<circle cx="598.182" cy="699.909" r="8.18182" fill="#FFFDFF"/>
<circle cx="598.182" cy="732.636" r="8.18182" fill="#FFFDFF"/>
<circle cx="598.182" cy="765.364" r="8.18182" fill="#FFFDFF"/>
<circle cx="663.636" cy="667.182" r="8.18182" fill="#FFFDFF"/>
<circle cx="663.636" cy="699.909" r="8.18182" fill="#FFFDFF"/>
<circle cx="663.636" cy="732.636" r="8.18182" fill="#FFFDFF"/>
<circle cx="663.636" cy="765.364" r="8.18182" fill="#FFFDFF"/>
<circle cx="729.091" cy="667.182" r="8.18182" fill="#FFFDFF"/>
<circle cx="729.091" cy="699.909" r="8.18182" fill="#FFFDFF"/>
<circle cx="729.091" cy="732.636" r="8.18182" fill="#FFFDFF"/>
<circle cx="729.091" cy="765.364" r="8.18182" fill="#FFFDFF"/>
<circle cx="630.909" cy="667.182" r="8.18182" fill="#FFFDFF"/>
<circle cx="630.909" cy="699.909" r="8.18182" fill="#FFFDFF"/>
<circle cx="630.909" cy="732.636" r="8.18182" fill="#FFFDFF"/>
<circle cx="630.909" cy="765.364" r="8.18182" fill="#FFFDFF"/>
<circle cx="696.364" cy="667.182" r="8.18182" fill="#FFFDFF"/>
<circle cx="696.364" cy="699.909" r="8.18182" fill="#FFFDFF"/>
<circle cx="696.364" cy="732.636" r="8.18182" fill="#FFFDFF"/>
<circle cx="696.364" cy="765.364" r="8.18182" fill="#FFFDFF"/>
</g>
</g>
<defs>
<linearGradient id="paint0_linear" x1="1092" y1="799" x2="711.258" y2="1319.48" gradientUnits="userSpaceOnUse">
<stop offset="0.00883838" stop-color="#004445"/>
<stop offset="1" stop-color="#008C8F"/>
</linearGradient>
<linearGradient id="paint1_linear" x1="939" y1="-325" x2="419" y2="451" gradientUnits="userSpaceOnUse">
<stop offset="0.372726" stop-color="white"/>
<stop offset="0.823529" stop-color="white" stop-opacity="0"/>
</linearGradient>
<linearGradient id="paint2_linear" x1="801" y1="793" x2="281" y2="1569" gradientUnits="userSpaceOnUse">
<stop offset="0.547455" stop-color="white"/>
<stop offset="0.739236" stop-color="white" stop-opacity="0"/>
</linearGradient>
<linearGradient id="paint3_linear" x1="542" y1="661" x2="-103" y2="1509" gradientUnits="userSpaceOnUse">
<stop offset="0.657736" stop-color="white"/>
<stop offset="0.739236" stop-color="white" stop-opacity="0"/>
</linearGradient>
<clipPath id="clip0">
<rect width="728" height="799" fill="white"/>
</clipPath>
</defs>
</svg>
